Le-patin-helvete.ufo
<glyph name="eight" format="1">
  <advance width="593"/>
  <unicode hex="0038"/>
  <outline>
    <contour>
      <point x="413" y="373" type="qcurve"/>
      <point x="535" y="315"/>
      <point x="535" y="196" type="qcurve" smooth="yes"/>
      <point x="535" y="99"/>
      <point x="402" y="-23"/>
      <point x="192" y="-23"/>
      <point x="59" y="100"/>
      <point x="59" y="197" type="qcurve" smooth="yes"/>
      <point x="59" y="315"/>
      <point x="180" y="373" type="qcurve"/>
      <point x="126" y="407"/>
      <point x="84" y="471"/>
      <point x="84" y="520" type="qcurve" smooth="yes"/>
      <point x="84" y="603"/>
      <point x="203" y="709"/>
      <point x="391" y="709"/>
      <point x="510" y="603"/>
      <point x="510" y="520" type="qcurve" smooth="yes"/>
      <point x="510" y="470"/>
      <point x="468" y="406"/>
    </contour>
    <contour>
      <point x="174" y="519" type="qcurve" smooth="yes"/>
      <point x="174" y="469"/>
      <point x="241" y="408"/>
      <point x="297" y="408" type="qcurve" smooth="yes"/>
      <point x="352" y="408"/>
      <point x="420" y="468"/>
      <point x="420" y="518" type="qcurve" smooth="yes"/>
      <point x="420" y="570"/>
      <point x="353" y="631"/>
      <point x="241" y="631"/>
      <point x="174" y="570"/>
    </contour>
    <contour>
      <point x="295" y="55" type="qcurve" smooth="yes"/>
      <point x="362" y="55"/>
      <point x="445" y="132"/>
      <point x="445" y="195" type="qcurve" smooth="yes"/>
      <point x="445" y="257"/>
      <point x="363" y="334"/>
      <point x="231" y="334"/>
      <point x="149" y="257"/>
      <point x="149" y="133"/>
      <point x="230" y="55"/>
    </contour>
  </outline>
</glyph>
<glyph name="cent" format="1">
  <advance width="556"/>
  <unicode hex="00A2"/>
  <outline>
    <contour>
      <point x="312" y="462" type="qcurve"/>
      <point x="312" y="53" type="line"/>
      <point x="408" y="64"/>
      <point x="426" y="180" type="qcurve"/>
      <point x="510" y="180" type="line"/>
      <point x="505" y="90"/>
      <point x="399" y="-19"/>
      <point x="312" y="-23" type="qcurve"/>
      <point x="312" y="-120" type="line"/>
      <point x="270" y="-120" type="line"/>
      <point x="270" y="-22" type="line"/>
      <point x="169" y="-13"/>
      <point x="52" y="134"/>
      <point x="52" y="253" type="qcurve" smooth="yes"/>
      <point x="52" y="375"/>
      <point x="169" y="527"/>
      <point x="270" y="538" type="qcurve"/>
      <point x="270" y="628" type="line"/>
      <point x="312" y="628" type="line"/>
      <point x="312" y="539" type="line"/>
      <point x="400" y="533"/>
      <point x="499" y="434"/>
      <point x="504" y="348" type="qcurve"/>
      <point x="420" y="348" type="line"/>
      <point x="415" y="398"/>
      <point x="358" y="458"/>
    </contour>
    <contour>
      <point x="270" y="55" type="qcurve"/>
      <point x="270" y="461" type="line"/>
      <point x="139" y="437"/>
      <point x="139" y="253" type="qcurve" smooth="yes"/>
      <point x="139" y="168"/>
      <point x="208" y="65"/>
    </contour>
  </outline>
</glyph>
<glyph name="twosuperior" format="1">
  <advance width="351"/>
  <unicode hex="00B2"/>
  <outline>
    <contour>
      <point x="178" y="656" type="qcurve" smooth="yes"/>
      <point x="152" y="656"/>
      <point x="116" y="638"/>
      <point x="99" y="606"/>
      <point x="92" y="577"/>
      <point x="91" y="557" type="qcurve"/>
      <point x="29" y="557" type="line"/>
      <point x="33" y="709"/>
      <point x="180" y="709" type="qcurve" smooth="yes"/>
      <point x="244" y="709"/>
      <point x="326" y="639"/>
      <point x="326" y="583" type="qcurve" smooth="yes"/>
      <point x="326" y="501"/>
      <point x="230" y="454" type="qcurve"/>
      <point x="167" y="422" type="line" smooth="yes"/>
      <point x="134" y="405"/>
      <point x="103" y="370"/>
      <point x="94" y="342" type="qcurve"/>
      <point x="323" y="342" type="line"/>
      <point x="323" y="284" type="line"/>
      <point x="19" y="284" type="line"/>
      <point x="23" y="357"/>
      <point x="74" y="433"/>
      <point x="146" y="471" type="qcurve" smooth="yes"/>
      <point x="204" y="502" type="line" smooth="yes"/>
      <point x="263" y="534"/>
      <point x="263" y="581" type="qcurve" smooth="yes"/>
      <point x="263" y="613"/>
      <point x="214" y="656"/>
    </contour>
  </outline>
</glyph>
<glyph name="Aacute" format="1">
  <advance width="964"/>
  <unicode hex="00C1"/>
  <outline>
    <contour>
      <point x="602" y="0" type="line"/>
      <point x="602" y="81" type="line"/>
      <point x="668" y="81" type="line"/>
      <point x="621" y="219" type="line"/>
      <point x="340" y="219" type="line"/>
      <point x="291" y="81" type="line"/>
      <point x="357" y="81" type="line"/>
      <point x="357" y="0" type="line"/>
      <point x="70" y="0" type="line"/>
      <point x="70" y="81" type="line"/>
      <point x="193" y="81" type="line"/>
      <point x="395" y="648" type="line"/>
      <point x="330" y="648" type="line"/>
      <point x="330" y="729" type="line"/>
      <point x="544" y="729" type="line"/>
      <point x="772" y="81" type="line"/>
      <point x="894" y="81" type="line"/>
      <point x="894" y="0" type="line"/>
    </contour>
    <contour>
      <point x="595" y="297" type="line"/>
      <point x="483" y="629" type="line"/>
      <point x="363" y="297" type="line"/>
    </contour>
    <contour>
      <point x="531" y="939" type="line"/>
      <point x="644" y="939" type="line"/>
      <point x="495" y="791" type="line"/>
      <point x="435" y="791" type="line"/>
    </contour>
  </outline>
</glyph>
<glyph name="yacute" format="1">
  <advance width="634"/>
  <unicode hex="00FD"/>
  <outline>
    <contour>
      <point x="365" y="739" type="line"/>
      <point x="478" y="739" type="line"/>
      <point x="329" y="591" type="line"/>
      <point x="269" y="591" type="line"/>
    </contour>
    <contour>
      <point x="52" y="456" type="line"/>
      <point x="52" y="524" type="line"/>
      <point x="205" y="524" type="line"/>
      <point x="339" y="116" type="line"/>
      <point x="460" y="456" type="line"/>
      <point x="413" y="456" type="line"/>
      <point x="413" y="524" type="line"/>
      <point x="574" y="524" type="line"/>
      <point x="341" y="-110" type="line"/>
      <point x="300" y="-218"/>
      <point x="206" y="-218" type="qcurve" smooth="yes"/>
      <point x="175" y="-218"/>
      <point x="150" y="-205" type="qcurve"/>
      <point x="150" y="-130" type="line"/>
      <point x="177" y="-136"/>
      <point x="194" y="-136" type="qcurve" smooth="yes"/>
      <point x="220" y="-136"/>
      <point x="235" y="-124" type="qcurve" smooth="yes"/>
      <point x="250" y="-113"/>
      <point x="261" y="-85" type="qcurve" smooth="yes"/>
      <point x="293" y="-2" type="line"/>
      <point x="139" y="456" type="line"/>
    </contour>
  </outline>
</glyph>
<glyph name="Sacute" format="1">
  <advance width="808"/>
  <unicode hex="015A"/>
  <outline>
    <contour>
      <point x="430" y="941" type="line"/>
      <point x="543" y="941" type="line"/>
      <point x="394" y="793" type="line"/>
      <point x="334" y="793" type="line"/>
    </contour>
    <contour>
      <point x="410" y="59" type="qcurve" smooth="yes"/>
      <point x="466" y="59"/>
      <point x="544" y="85"/>
      <point x="581" y="127"/>
      <point x="596" y="168"/>
      <point x="596" y="191" type="qcurve" smooth="yes"/>
      <point x="596" y="273"/>
      <point x="462" y="309" type="qcurve" smooth="yes"/>
      <point x="281" y="357" type="line" smooth="yes"/>
      <point x="138" y="395"/>
      <point x="138" y="527" type="qcurve" smooth="yes"/>
      <point x="138" y="626"/>
      <point x="277" y="741"/>
      <point x="397" y="741" type="qcurve" smooth="yes"/>
      <point x="508" y="741"/>
      <point x="576" y="695" type="qcurve"/>
      <point x="576" y="747" type="line"/>
      <point x="670" y="747" type="line"/>
      <point x="670" y="515" type="line"/>
      <point x="664" y="515" type="line"/>
      <point x="576" y="515" type="line"/>
      <point x="575" y="586"/>
      <point x="481" y="663"/>
      <point x="394" y="663" type="qcurve" smooth="yes"/>
      <point x="320" y="663"/>
      <point x="231" y="595"/>
      <point x="231" y="540" type="qcurve" smooth="yes"/>
      <point x="231" y="498"/>
      <point x="285" y="450"/>
      <point x="351" y="432" type="qcurve" smooth="yes"/>
      <point x="534" y="383" type="line" smooth="yes"/>
      <point x="608" y="363"/>
      <point x="689" y="267"/>
      <point x="689" y="200" type="qcurve" smooth="yes"/>
      <point x="689" y="171"/>
      <point x="674" y="114"/>
      <point x="634" y="53"/>
      <point x="572" y="7"/>
      <point x="469" y="-23"/>
      <point x="404" y="-23" type="qcurve" smooth="yes"/>
      <point x="363" y="-23"/>
      <point x="288" y="-10"/>
      <point x="210" y="25"/>
      <point x="154" y="80"/>
      <point x="117" y="172"/>
      <point x="116" y="232" type="qcurve"/>
      <point x="204" y="232" type="line"/>
      <point x="204" y="227" type="line" smooth="yes"/>
      <point x="204" y="196"/>
      <point x="223" y="142"/>
      <point x="266" y="90"/>
      <point x="351" y="59"/>
    </contour>
  </outline>
</glyph>
<glyph name="uni0231" format="1">
  <advance width="556"/>
  <unicode hex="0231"/>
  <outline>
    <contour>
      <point x="409" y="793" type="line"/>
      <point x="409" y="723" type="line"/>
      <point x="135" y="723" type="line"/>
      <point x="135" y="793" type="line"/>
    </contour>
    <contour>
      <point x="324" y="683" type="line"/>
      <point x="324" y="579" type="line"/>
      <point x="220" y="579" type="line"/>
      <point x="220" y="683" type="line"/>
    </contour>
    <contour>
      <point x="339" y="539" type="qcurve" smooth="yes"/>
      <point x="452" y="539"/>
      <point x="577" y="390"/>
      <point x="577" y="254" type="qcurve" smooth="yes"/>
      <point x="577" y="125"/>
      <point x="450" y="-23"/>
      <point x="340" y="-23" type="qcurve" smooth="yes"/>
      <point x="228" y="-23"/>
      <point x="103" y="126"/>
      <point x="103" y="390"/>
      <point x="229" y="539"/>
    </contour>
    <contour>
      <point x="340" y="462" type="qcurve" smooth="yes"/>
      <point x="270" y="462"/>
      <point x="190" y="353"/>
      <point x="190" y="163"/>
      <point x="270" y="54"/>
      <point x="340" y="54" type="qcurve" smooth="yes"/>
      <point x="409" y="54"/>
      <point x="490" y="163"/>
      <point x="490" y="255" type="qcurve" smooth="yes"/>
      <point x="490" y="352"/>
      <point x="411" y="462"/>
    </contour>
  </outline>
</glyph>
<glyph name="afii10195" format="1">
  <advance width="556"/>
  <unicode hex="0473"/>
  <outline>
    <contour>
      <point x="272" y="539" type="qcurve" smooth="yes"/>
      <point x="385" y="539"/>
      <point x="510" y="390"/>
      <point x="510" y="254" type="qcurve" smooth="yes"/>
      <point x="510" y="125"/>
      <point x="383" y="-23"/>
      <point x="273" y="-23" type="qcurve" smooth="yes"/>
      <point x="161" y="-23"/>
      <point x="36" y="126"/>
      <point x="36" y="390"/>
      <point x="162" y="539"/>
    </contour>
    <contour>
      <point x="273" y="462" type="qcurve" smooth="yes"/>
      <point x="203" y="462"/>
      <point x="123" y="353"/>
      <point x="123" y="163"/>
      <point x="203" y="54"/>
      <point x="273" y="54" type="qcurve" smooth="yes"/>
      <point x="342" y="54"/>
      <point x="423" y="163"/>
      <point x="423" y="255" type="qcurve" smooth="yes"/>
      <point x="423" y="352"/>
      <point x="344" y="462"/>
    </contour>
    <contour>
      <point x="209" y="302" type="qcurve" smooth="yes"/>
      <point x="232" y="302"/>
      <point x="311" y="268"/>
      <point x="329" y="268" type="qcurve" smooth="yes"/>
      <point x="351" y="268"/>
      <point x="362" y="302" type="qcurve"/>
      <point x="414" y="302" type="line"/>
      <point x="401" y="208"/>
      <point x="334" y="208" type="qcurve" smooth="yes"/>
      <point x="317" y="208"/>
      <point x="226" y="242"/>
      <point x="214" y="242" type="qcurve" smooth="yes"/>
      <point x="193" y="242"/>
      <point x="184" y="209" type="qcurve"/>
      <point x="132" y="209" type="line"/>
      <point x="139" y="254"/>
      <point x="179" y="302"/>
    </contour>
  </outline>
</glyph>
<glyph name="uni0908" format="1">
  <advance width="463"/>
  <unicode hex="0908"/>
  <outline>
    <contour>
      <point x="309" y="616" type="line"/>
      <point x="221" y="723"/>
      <point x="221" y="800" type="qcurve" smooth="yes"/>
      <point x="221" y="854"/>
      <point x="299" y="904"/>
      <point x="351" y="904" type="qcurve" smooth="yes"/>
      <point x="393" y="904"/>
      <point x="420" y="893" type="qcurve"/>
      <point x="420" y="834" type="line"/>
      <point x="386" y="848"/>
      <point x="352" y="848" type="qcurve" smooth="yes"/>
      <point x="321" y="848"/>
      <point x="283" y="812"/>
      <point x="283" y="781" type="qcurve" smooth="yes"/>
      <point x="283" y="711"/>
      <point x="365" y="616" type="qcurve"/>
    </contour>
    <contour>
      <point x="323" y="222" type="qcurve" smooth="yes"/>
      <point x="312" y="222"/>
      <point x="224" y="200"/>
      <point x="209" y="200" type="qcurve" smooth="yes"/>
      <point x="179" y="200"/>
      <point x="101" y="269"/>
      <point x="49" y="362"/>
      <point x="49" y="394" type="qcurve" smooth="yes"/>
      <point x="49" y="415"/>
      <point x="83" y="444"/>
      <point x="107" y="444" type="qcurve" smooth="yes"/>
      <point x="301" y="444" type="line"/>
      <point x="301" y="540" type="line"/>
      <point x="0" y="540" type="line"/>
      <point x="0" y="613" type="line"/>
      <point x="464" y="613" type="line"/>
      <point x="464" y="540" type="line"/>
      <point x="374" y="540" type="line"/>
      <point x="374" y="370" type="line"/>
      <point x="140" y="370" type="line" smooth="yes"/>
      <point x="133" y="370"/>
      <point x="133" y="364" type="qcurve" smooth="yes"/>
      <point x="133" y="348"/>
      <point x="205" y="271"/>
      <point x="225" y="271" type="qcurve" smooth="yes"/>
      <point x="226" y="271"/>
      <point x="277" y="285"/>
      <point x="334" y="297"/>
      <point x="347" y="297" type="qcurve" smooth="yes"/>
      <point x="381" y="297"/>
      <point x="429" y="238"/>
      <point x="429" y="206" type="qcurve" smooth="yes"/>
      <point x="429" y="63"/>
      <point x="289" y="19" type="qcurve"/>
      <point x="305" y="-5"/>
      <point x="405" y="-87"/>
      <point x="428" y="-88" type="qcurve"/>
      <point x="383" y="-151" type="line"/>
      <point x="344" y="-127"/>
      <point x="276" y="-71"/>
      <point x="242" y="-37"/>
      <point x="198" y="8" type="qcurve"/>
      <point x="45" y="8"/>
      <point x="42" y="99" type="qcurve"/>
      <point x="42" y="130"/>
      <point x="86" y="160"/>
      <point x="104" y="160" type="qcurve" smooth="yes"/>
      <point x="130" y="160"/>
      <point x="183" y="128"/>
      <point x="208" y="101"/>
      <point x="235" y="70" type="qcurve"/>
      <point x="276" y="70"/>
      <point x="354" y="126"/>
      <point x="355" y="169" type="qcurve" smooth="yes"/>
      <point x="355" y="200"/>
      <point x="341" y="222"/>
    </contour>
  </outline>
</glyph>
<glyph name="uni0BCC" format="1">
  <advance width="1706"/>
  <unicode hex="0BCC"/>
  <outline>
    <contour>
      <point x="810" y="215" type="qcurve" smooth="yes"/>
      <point x="810" y="328"/>
      <point x="956" y="482"/>
      <point x="1070" y="482" type="qcurve" smooth="yes"/>
      <point x="1121" y="482"/>
      <point x="1214" y="424"/>
      <point x="1239" y="385" type="qcurve"/>
      <point x="1247" y="427"/>
      <point x="1319" y="482"/>
      <point x="1372" y="482" type="qcurve" smooth="yes"/>
      <point x="1632" y="482" type="line"/>
      <point x="1632" y="428" type="line"/>
      <point x="1488" y="428" type="line"/>
      <point x="1488" y="-2" type="line"/>
      <point x="1433" y="-2" type="line"/>
      <point x="1433" y="428" type="line"/>
      <point x="1366" y="428" type="line" smooth="yes"/>
      <point x="1326" y="428"/>
      <point x="1277" y="354"/>
      <point x="1277" y="307" type="qcurve" smooth="yes"/>
      <point x="1277" y="-2" type="line"/>
      <point x="1222" y="-2" type="line"/>
      <point x="1222" y="283" type="line" smooth="yes"/>
      <point x="1222" y="338"/>
      <point x="1120" y="428"/>
      <point x="1064" y="428" type="qcurve" smooth="yes"/>
      <point x="981" y="428"/>
      <point x="864" y="314"/>
      <point x="864" y="234" type="qcurve"/>
      <point x="917" y="290"/>
      <point x="993" y="290" type="qcurve" smooth="yes"/>
      <point x="1061" y="290"/>
      <point x="1142" y="206"/>
      <point x="1142" y="137" type="qcurve" smooth="yes"/>
      <point x="1142" y="76"/>
      <point x="1053" y="-2"/>
      <point x="991" y="-2" type="qcurve" smooth="yes"/>
      <point x="904" y="-2"/>
      <point x="810" y="119"/>
    </contour>
    <contour>
      <point x="1089" y="137" type="qcurve" smooth="yes"/>
      <point x="1089" y="178"/>
      <point x="1030" y="240"/>
      <point x="991" y="240" type="qcurve" smooth="yes"/>
      <point x="955" y="240"/>
      <point x="896" y="178"/>
      <point x="896" y="143" type="qcurve" smooth="yes"/>
      <point x="896" y="104"/>
      <point x="954" y="54"/>
      <point x="996" y="54" type="qcurve" smooth="yes"/>
      <point x="1036" y="54"/>
      <point x="1089" y="100"/>
    </contour>
    <contour>
      <point x="303" y="725" type="qcurve" smooth="yes"/>
      <point x="197" y="725"/>
      <point x="67" y="530"/>
      <point x="67" y="382" type="qcurve" smooth="yes"/>
      <point x="67" y="266"/>
      <point x="115" y="162" type="qcurve"/>
      <point x="123" y="221"/>
      <point x="207" y="295"/>
      <point x="271" y="295" type="qcurve" smooth="yes"/>
      <point x="339" y="295"/>
      <point x="412" y="209"/>
      <point x="412" y="137" type="qcurve" smooth="yes"/>
      <point x="412" y="76"/>
      <point x="328" y="-2"/>
      <point x="266" y="-2" type="qcurve" smooth="yes"/>
      <point x="181" y="-2"/>
      <point x="63" y="108"/>
      <point x="12" y="275"/>
      <point x="12" y="379" type="qcurve" smooth="yes"/>
      <point x="12" y="488"/>
      <point x="73" y="664"/>
      <point x="207" y="777"/>
      <point x="303" y="777" type="qcurve" smooth="yes"/>
      <point x="424" y="777"/>
      <point x="551" y="641"/>
      <point x="551" y="518" type="qcurve" smooth="yes"/>
      <point x="551" y="-2" type="line"/>
      <point x="496" y="-2" type="line"/>
      <point x="496" y="523" type="line" smooth="yes"/>
      <point x="496" y="616"/>
      <point x="394" y="725"/>
    </contour>
    <contour>
      <point x="277" y="246" type="qcurve" smooth="yes"/>
      <point x="235" y="246"/>
      <point x="180" y="183"/>
      <point x="180" y="138" type="qcurve" smooth="yes"/>
      <point x="180" y="96"/>
      <point x="225" y="47"/>
      <point x="266" y="47" type="qcurve" smooth="yes"/>
      <point x="300" y="47"/>
      <point x="357" y="109"/>
      <point x="357" y="143" type="qcurve" smooth="yes"/>
      <point x="357" y="185"/>
      <point x="312" y="246"/>
    </contour>
  </outline>
</glyph>
<glyph name="uni10D1" format="1">
  <advance width="491"/>
  <unicode hex="10D1"/>
  <outline>
    <contour>
      <point x="461" y="198" type="qcurve" smooth="yes"/>
      <point x="461" y="109"/>
      <point x="337" y="0"/>
      <point x="155" y="0"/>
      <point x="30" y="108"/>
      <point x="30" y="198" type="qcurve" smooth="yes"/>
      <point x="30" y="283"/>
      <point x="144" y="405"/>
      <point x="229" y="421" type="qcurve"/>
      <point x="229" y="606" type="line"/>
      <point x="116" y="606" type="line" smooth="yes"/>
      <point x="72" y="606"/>
      <point x="72" y="640" type="qcurve" smooth="yes"/>
      <point x="72" y="720" type="line"/>
      <point x="142" y="720" type="line"/>
      <point x="142" y="681"/>
      <point x="151" y="664"/>
      <point x="171" y="664" type="qcurve" smooth="yes"/>
      <point x="303" y="664" type="line"/>
      <point x="292" y="421" type="line"/>
      <point x="368" y="392"/>
      <point x="461" y="275"/>
    </contour>
    <contour>
      <point x="391" y="198" type="qcurve" smooth="yes"/>
      <point x="391" y="289"/>
      <point x="320" y="338" type="qcurve" smooth="yes"/>
      <point x="278" y="367"/>
      <point x="242" y="367" type="qcurve" smooth="yes"/>
      <point x="227" y="367"/>
      <point x="178" y="345"/>
      <point x="164" y="333" type="qcurve" smooth="yes"/>
      <point x="100" y="281"/>
      <point x="100" y="198" type="qcurve" smooth="yes"/>
      <point x="100" y="136"/>
      <point x="184" y="50"/>
      <point x="308" y="50"/>
      <point x="391" y="136"/>
    </contour>
  </outline>
</glyph>
<glyph name="triangleleft" format="1">
  <advance width="636"/>
  <unicode hex="22B3"/>
  <outline>
    <contour>
      <point x="62" y="6" type="line"/>
      <point x="62" y="508" type="line"/>
      <point x="574" y="267" type="line"/>
      <point x="574" y="247" type="line"/>
    </contour>
    <contour>
      <point x="134" y="121" type="line"/>
      <point x="433" y="257" type="line"/>
      <point x="134" y="395" type="line"/>
    </contour>
  </outline>
</glyph>
<glyph name="bn_g_l_uukaar" format="1">
  <advance width="628"/>
  <outline>
    <contour>
      <point x="573" y="136" type="qcurve"/>
      <point x="573" y="69"/>
      <point x="591" y="3" type="qcurve"/>
      <point x="544" y="-7" type="line"/>
      <point x="521" y="88"/>
      <point x="521" y="253" type="qcurve" smooth="yes"/>
      <point x="521" y="286" type="line" smooth="yes"/>
      <point x="521" y="307"/>
      <point x="522" y="317" type="qcurve"/>
      <point x="428" y="296" type="line"/>
      <point x="428" y="-32" type="line"/>
      <point x="378" y="-32" type="line"/>
      <point x="378" y="-7"/>
      <point x="377" y="3" type="qcurve"/>
      <point x="377" y="8" type="line"/>
      <point x="375" y="40"/>
      <point x="360" y="68"/>
      <point x="343" y="68" type="qcurve"/>
      <point x="317" y="66"/>
      <point x="317" y="35" type="qcurve" smooth="yes"/>
      <point x="317" y="20"/>
      <point x="324" y="8" type="qcurve"/>
      <point x="279" y="-9" type="line"/>
      <point x="268" y="35"/>
      <point x="222" y="87"/>
      <point x="196" y="87" type="qcurve" smooth="yes"/>
      <point x="167" y="87"/>
      <point x="131" y="56"/>
      <point x="131" y="31" type="qcurve" smooth="yes"/>
      <point x="131" y="9"/>
      <point x="156" y="-11"/>
      <point x="191" y="-15" type="qcurve"/>
      <point x="209" y="-62" type="line"/>
      <point x="196" y="-64"/>
      <point x="191" y="-65" type="qcurve" smooth="yes"/>
      <point x="187" y="-65"/>
      <point x="185" y="-66" type="qcurve"/>
      <point x="139" y="-66"/>
      <point x="80" y="-11"/>
      <point x="80" y="33" type="qcurve" smooth="yes"/>
      <point x="80" y="69"/>
      <point x="147" y="139"/>
      <point x="194" y="139" type="qcurve" smooth="yes"/>
      <point x="243" y="139"/>
      <point x="284" y="90" type="qcurve"/>
      <point x="296" y="119"/>
      <point x="336" y="119" type="qcurve" smooth="yes"/>
      <point x="352" y="119"/>
      <point x="377" y="94" type="qcurve"/>
      <point x="377" y="355" type="line"/>
      <point x="291" y="510"/>
      <point x="197" y="510" type="qcurve" smooth="yes"/>
      <point x="164" y="510"/>
      <point x="94" y="455"/>
      <point x="94" y="420" type="qcurve" smooth="yes"/>
      <point x="94" y="404"/>
      <point x="105" y="404" type="qcurve" smooth="yes"/>
      <point x="114" y="404"/>
      <point x="193" y="430"/>
      <point x="201" y="430" type="qcurve" smooth="yes"/>
      <point x="235" y="430"/>
      <point x="279" y="389"/>
      <point x="279" y="355" type="qcurve" smooth="yes"/>
      <point x="279" y="322"/>
      <point x="210" y="253" type="qcurve"/>
      <point x="168" y="213" type="line"/>
      <point x="126" y="245" type="line"/>
      <point x="182" y="299" type="line" smooth="yes"/>
      <point x="225" y="340"/>
      <point x="228" y="360" type="qcurve"/>
      <point x="228" y="384"/>
      <point x="196" y="384" type="qcurve" smooth="yes"/>
      <point x="192" y="384"/>
      <point x="114" y="353"/>
      <point x="101" y="353" type="qcurve" smooth="yes"/>
      <point x="75" y="353"/>
      <point x="43" y="390"/>
      <point x="43" y="418" type="qcurve" smooth="yes"/>
      <point x="43" y="467"/>
      <point x="130" y="561"/>
      <point x="197" y="561" type="qcurve" smooth="yes"/>
      <point x="254" y="561"/>
      <point x="331" y="508"/>
      <point x="377" y="436" type="qcurve"/>
      <point x="377" y="635" type="line"/>
      <point x="428" y="635" type="line"/>
      <point x="428" y="558" type="line"/>
      <point x="635" y="558" type="line"/>
      <point x="635" y="507" type="line"/>
      <point x="428" y="507" type="line"/>
      <point x="428" y="350" type="line"/>
      <point x="492" y="365"/>
      <point x="547" y="371" type="qcurve"/>
      <point x="578" y="343" type="line"/>
      <point x="578" y="308"/>
      <point x="572" y="212"/>
      <point x="572" y="175" type="qcurve" smooth="yes"/>
      <point x="572" y="149"/>
    </contour>
  </outline>
</glyph>
<glyph name="bn_post_k_ra" format="1">
  <advance width="153"/>
  <outline>
    <contour>
      <point x="-219" y="240" type="qcurve" smooth="yes"/>
      <point x="-219" y="232"/>
      <point x="-213" y="221" type="qcurve"/>
      <point x="-249" y="186" type="line"/>
      <point x="-269" y="209"/>
      <point x="-269" y="240" type="qcurve" smooth="yes"/>
      <point x="-269" y="291"/>
      <point x="-164" y="394"/>
      <point x="-118" y="394" type="qcurve" smooth="yes"/>
      <point x="-82" y="394"/>
      <point x="-36" y="335"/>
      <point x="-36" y="290" type="qcurve"/>
      <point x="-20" y="304"/>
      <point x="-8" y="313"/>
      <point x="35" y="328"/>
      <point x="62" y="328" type="qcurve" smooth="yes"/>
      <point x="96" y="328"/>
      <point x="144" y="271"/>
      <point x="144" y="243" type="qcurve" smooth="yes"/>
      <point x="144" y="200"/>
      <point x="108" y="171" type="qcurve"/>
      <point x="74" y="206" type="line"/>
      <point x="92" y="221"/>
      <point x="92" y="242" type="qcurve" smooth="yes"/>
      <point x="92" y="258"/>
      <point x="65" y="277"/>
      <point x="43" y="277" type="qcurve" smooth="yes"/>
      <point x="17" y="277"/>
      <point x="-36" y="211" type="qcurve"/>
      <point x="-36" y="-34" type="line"/>
      <point x="-87" y="-34" type="line"/>
      <point x="-87" y="16" type="line"/>
      <point x="-136" y="58"/>
      <point x="-195" y="58" type="qcurve" smooth="yes"/>
      <point x="-203" y="58"/>
      <point x="-289" y="46"/>
      <point x="-296" y="46" type="qcurve" smooth="yes"/>
      <point x="-332" y="46"/>
      <point x="-386" y="80"/>
      <point x="-413" y="130"/>
      <point x="-425" y="173"/>
      <point x="-425" y="189" type="qcurve" smooth="yes"/>
      <point x="-425" y="230"/>
      <point x="-398" y="295" type="qcurve"/>
      <point x="-358" y="269" type="line"/>
      <point x="-374" y="229"/>
      <point x="-374" y="179" type="qcurve" smooth="yes"/>
      <point x="-374" y="170"/>
      <point x="-366" y="147"/>
      <point x="-349" y="116"/>
      <point x="-308" y="96"/>
      <point x="-281" y="96" type="qcurve" smooth="yes"/>
      <point x="-273" y="96"/>
      <point x="-191" y="109"/>
      <point x="-179" y="109" type="qcurve" smooth="yes"/>
      <point x="-128" y="109"/>
      <point x="-87" y="80" type="qcurve"/>
      <point x="-87" y="296" type="line" smooth="yes"/>
      <point x="-87" y="343"/>
      <point x="-124" y="343" type="qcurve" smooth="yes"/>
      <point x="-152" y="343"/>
      <point x="-219" y="271"/>
    </contour>
    <contour>
      <point x="-14" y="507" type="line"/>
      <point x="-14" y="558" type="line"/>
      <point x="157" y="558" type="line"/>
      <point x="157" y="507" type="line"/>
    </contour>
  </outline>
</glyph>
<glyph name="bn_s_tta" format="1">
  <advance width="759"/>
  <outline>
    <contour>
      <point x="478" y="82" type="qcurve" smooth="yes"/>
      <point x="541" y="82"/>
      <point x="638" y="232"/>
      <point x="638" y="307" type="qcurve" smooth="yes"/>
      <point x="638" y="345"/>
      <point x="608" y="345" type="qcurve" smooth="yes"/>
      <point x="594" y="345"/>
      <point x="569" y="329" type="qcurve"/>
      <point x="539" y="363" type="line"/>
      <point x="581" y="396"/>
      <point x="612" y="396" type="qcurve" smooth="yes"/>
      <point x="642" y="396"/>
      <point x="689" y="336"/>
      <point x="689" y="305" type="qcurve" smooth="yes"/>
      <point x="689" y="248"/>
      <point x="635" y="121"/>
      <point x="538" y="31"/>
      <point x="484" y="31" type="qcurve" smooth="yes"/>
      <point x="452" y="31"/>
      <point x="409" y="54"/>
      <point x="384" y="87" type="qcurve"/>
      <point x="384" y="240" type="line"/>
      <point x="363" y="285"/>
      <point x="311" y="348"/>
      <point x="297" y="348" type="qcurve" smooth="yes"/>
      <point x="277" y="348"/>
      <point x="232" y="296"/>
      <point x="199" y="233"/>
      <point x="149" y="181"/>
      <point x="125" y="181" type="qcurve" smooth="yes"/>
      <point x="76" y="181"/>
      <point x="12" y="287" type="qcurve"/>
      <point x="56" y="311" type="line"/>
      <point x="93" y="232"/>
      <point x="120" y="232" type="qcurve" smooth="yes"/>
      <point x="139" y="232"/>
      <point x="185" y="299"/>
      <point x="189" y="320" type="qcurve"/>
      <point x="178" y="395"/>
      <point x="112" y="450"/>
      <point x="17" y="470" type="qcurve"/>
      <point x="17" y="507" type="line"/>
      <point x="-33" y="507" type="line"/>
      <point x="-33" y="558" type="line"/>
      <point x="644" y="558" type="line"/>
      <point x="644" y="560"/>
      <point x="645" y="568"/>
      <point x="646" y="570" type="qcurve"/>
      <point x="646" y="576"/>
      <point x="649" y="585" type="qcurve"/>
      <point x="649" y="637"/>
      <point x="558" y="637" type="qcurve"/>
      <point x="407" y="627" type="line"/>
      <point x="351" y="627"/>
      <point x="282" y="687"/>
      <point x="282" y="736" type="qcurve" smooth="yes"/>
      <point x="282" y="766"/>
      <point x="315" y="807" type="qcurve"/>
      <point x="357" y="778" type="line"/>
      <point x="335" y="746" type="line"/>
      <point x="335" y="743"/>
      <point x="334" y="731"/>
      <point x="333" y="729" type="qcurve"/>
      <point x="333" y="724" type="line" smooth="yes"/>
      <point x="333" y="677"/>
      <point x="430" y="677" type="qcurve"/>
      <point x="583" y="688" type="line"/>
      <point x="634" y="688"/>
      <point x="702" y="621"/>
      <point x="702" y="566" type="qcurve" smooth="yes"/>
      <point x="702" y="558" type="line"/>
      <point x="769" y="558" type="line"/>
      <point x="769" y="507" type="line"/>
      <point x="435" y="507" type="line"/>
      <point x="435" y="105" type="line"/>
      <point x="447" y="82"/>
    </contour>
    <contour>
      <point x="296" y="399" type="qcurve" smooth="yes"/>
      <point x="335" y="399"/>
      <point x="384" y="330" type="qcurve"/>
      <point x="384" y="507" type="line"/>
      <point x="99" y="507" type="line"/>
      <point x="195" y="481"/>
      <point x="231" y="370" type="qcurve"/>
      <point x="262" y="399"/>
    </contour>
  </outline>
</glyph>
<glyph name="uni0926_094D.half_0928.pres" format="1">
  <advance width="488"/>
  <outline>
    <contour>
      <point x="41" y="301" type="qcurve" smooth="yes"/>
      <point x="41" y="362"/>
      <point x="107" y="447"/>
      <point x="159" y="447" type="qcurve" smooth="yes"/>
      <point x="346" y="447" type="line"/>
      <point x="346" y="541" type="line"/>
      <point x="0" y="541" type="line"/>
      <point x="0" y="613" type="line"/>
      <point x="488" y="613" type="line"/>
      <point x="488" y="541" type="line"/>
      <point x="417" y="541" type="line"/>
      <point x="417" y="376" type="line"/>
      <point x="183" y="376" type="line" smooth="yes"/>
      <point x="153" y="376"/>
      <point x="112" y="333"/>
      <point x="112" y="301" type="qcurve" smooth="yes"/>
      <point x="112" y="172"/>
      <point x="312" y="172" type="qcurve"/>
      <point x="312" y="195"/>
      <point x="311" y="200" type="qcurve"/>
      <point x="311" y="266"/>
      <point x="377" y="266" type="qcurve" smooth="yes"/>
      <point x="407" y="266"/>
      <point x="436" y="218"/>
      <point x="436" y="200" type="qcurve" smooth="yes"/>
      <point x="436" y="152"/>
      <point x="393" y="125" type="qcurve"/>
      <point x="406" y="76"/>
      <point x="484" y="-23" type="qcurve"/>
      <point x="389" y="-23" type="line"/>
      <point x="359" y="34" type="line"/>
      <point x="228" y="-28" type="line"/>
      <point x="231" y="-33"/>
      <point x="263" y="-87"/>
      <point x="268" y="-105" type="qcurve"/>
      <point x="268" y="-128"/>
      <point x="240" y="-128" type="qcurve" smooth="yes"/>
      <point x="219" y="-128"/>
      <point x="105" y="-65"/>
      <point x="104" y="-51" type="qcurve"/>
      <point x="104" y="-10"/>
      <point x="121" y="-1" type="qcurve" smooth="yes"/>
      <point x="332" y="100" type="line"/>
      <point x="262" y="100"/>
      <point x="154" y="127"/>
      <point x="92" y="167"/>
      <point x="54" y="224"/>
      <point x="41" y="274"/>
    </contour>
  </outline>
</glyph>
<glyph name="uni0A39_uni0A4D.blwf_uni0A42.blws" format="1">
  <advance width="9"/>
  <outline>
    <contour>
      <point x="-426" y="-350" type="line"/>
      <point x="-426" y="-301" type="line"/>
      <point x="-69" y="-301" type="line"/>
      <point x="-69" y="-350" type="line"/>
    </contour>
    <contour>
      <point x="-430" y="-462" type="line"/>
      <point x="-430" y="-413" type="line"/>
      <point x="-73" y="-413" type="line"/>
      <point x="-73" y="-462" type="line"/>
    </contour>
    <contour>
      <point x="-379" y="-96" type="qcurve" smooth="yes"/>
      <point x="-379" y="-123"/>
      <point x="-302" y="-197"/>
      <point x="-248" y="-197" type="qcurve" smooth="yes"/>
      <point x="-218" y="-197"/>
      <point x="-185" y="-147"/>
      <point x="-185" y="-104" type="qcurve" smooth="yes"/>
      <point x="-185" y="-4" type="line"/>
      <point x="-126" y="-4" type="line"/>
      <point x="-126" y="-108" type="line" smooth="yes"/>
      <point x="-126" y="-184"/>
      <point x="-206" y="-250"/>
      <point x="-255" y="-250" type="qcurve" smooth="yes"/>
      <point x="-327" y="-250"/>
      <point x="-428" y="-139"/>
      <point x="-428" y="-103" type="qcurve" smooth="yes"/>
      <point x="-428" y="-34"/>
      <point x="-346" y="-34" type="qcurve" smooth="yes"/>
      <point x="-308" y="-34"/>
      <point x="-308" y="-49" type="qcurve" smooth="yes"/>
      <point x="-308" y="-54"/>
      <point x="-315" y="-63"/>
      <point x="-318" y="-63" type="qcurve" smooth="yes"/>
      <point x="-341" y="-65"/>
      <point x="-364" y="-70"/>
      <point x="-379" y="-83"/>
    </contour>
  </outline>
</glyph>
<glyph name="uni0AA2_uni0ABC.nukt" format="1">
  <advance width="524"/>
  <outline>
    <contour>
      <point x="164" y="-98" type="qcurve" smooth="yes"/>
      <point x="193" y="-98"/>
      <point x="233" y="-140"/>
      <point x="233" y="-170" type="qcurve" smooth="yes"/>
      <point x="233" y="-189"/>
      <point x="200" y="-240"/>
      <point x="164" y="-240" type="qcurve" smooth="yes"/>
      <point x="123" y="-240"/>
      <point x="89" y="-191"/>
      <point x="89" y="-170" type="qcurve" smooth="yes"/>
      <point x="89" y="-131"/>
      <point x="142" y="-98"/>
    </contour>
    <contour>
      <point x="262" y="-41" type="qcurve" smooth="yes"/>
      <point x="0" y="-41"/>
      <point x="0" y="152" type="qcurve" smooth="yes"/>
      <point x="0" y="198"/>
      <point x="62" y="262"/>
      <point x="150" y="294"/>
      <point x="239" y="320"/>
      <point x="301" y="353"/>
      <point x="301" y="377" type="qcurve" smooth="yes"/>
      <point x="301" y="428"/>
      <point x="193" y="428" type="qcurve" smooth="yes"/>
      <point x="143" y="428"/>
      <point x="76" y="396" type="qcurve"/>
      <point x="78" y="499" type="line"/>
      <point x="125" y="513"/>
      <point x="200" y="513" type="qcurve"/>
      <point x="318" y="510"/>
      <point x="417" y="427"/>
      <point x="417" y="371" type="qcurve" smooth="yes"/>
      <point x="417" y="369" type="line" smooth="yes"/>
      <point x="417" y="328"/>
      <point x="373" y="273"/>
      <point x="307" y="250"/>
      <point x="230" y="229"/>
      <point x="164" y="213"/>
      <point x="120" y="173"/>
      <point x="120" y="142" type="qcurve" smooth="yes"/>
      <point x="120" y="96"/>
      <point x="182" y="39"/>
      <point x="229" y="39" type="qcurve" smooth="yes"/>
      <point x="232" y="39"/>
      <point x="240" y="41" type="qcurve"/>
      <point x="240" y="81"/>
      <point x="263" y="136"/>
      <point x="302" y="162"/>
      <point x="339" y="173"/>
      <point x="359" y="173" type="qcurve" smooth="yes"/>
      <point x="482" y="173"/>
      <point x="482" y="77" type="qcurve"/>
      <point x="481" y="42"/>
      <point x="409" y="-14"/>
      <point x="310" y="-41"/>
    </contour>
  </outline>
</glyph>
<glyph name="uni0AAE_uni0ACD.half_uni0AB0_uni0ACD.blwf.vatu" format="1">
  <advance width="328"/>
  <outline>
    <contour>
      <point x="102" y="488" type="qcurve" smooth="yes"/>
      <point x="171" y="488"/>
      <point x="225" y="432"/>
      <point x="225" y="376" type="qcurve" smooth="yes"/>
      <point x="225" y="274" type="line"/>
      <point x="330" y="274" type="line"/>
      <point x="329" y="189" type="line"/>
      <point x="225" y="189" type="line"/>
      <point x="225" y="154" type="line" smooth="yes"/>
      <point x="225" y="125"/>
      <point x="166" y="86"/>
      <point x="121" y="86" type="qcurve" smooth="yes"/>
      <point x="68" y="86"/>
      <point x="24" y="143"/>
      <point x="24" y="181" type="qcurve" smooth="yes"/>
      <point x="24" y="275"/>
      <point x="120" y="275" type="qcurve"/>
      <point x="120" y="332" type="line" smooth="yes"/>
      <point x="120" y="373"/>
      <point x="106" y="406"/>
      <point x="84" y="406" type="qcurve" smooth="yes"/>
      <point x="65" y="406"/>
      <point x="13" y="396"/>
      <point x="13" y="393" type="qcurve" smooth="yes"/>
      <point x="13" y="479" type="line"/>
      <point x="62" y="488"/>
    </contour>
    <contour>
      <point x="330" y="21" type="line"/>
      <point x="107" y="-80" type="line"/>
      <point x="50" y="-10" type="line"/>
      <point x="330" y="83" type="line"/>
    </contour>
  </outline>
</glyph>
<glyph name="uni0AAF_uni0ABC.nukt" format="1">
  <advance width="590"/>
  <outline>
    <contour>
      <point x="78" y="25" type="qcurve" smooth="yes"/>
      <point x="108" y="25"/>
      <point x="146" y="-16"/>
      <point x="146" y="-47" type="qcurve" smooth="yes"/>
      <point x="146" y="-74"/>
      <point x="117" y="-108"/>
      <point x="89" y="-117"/>
      <point x="78" y="-117" type="qcurve" smooth="yes"/>
      <point x="37" y="-117"/>
      <point x="3" y="-68"/>
      <point x="3" y="-47" type="qcurve" smooth="yes"/>
      <point x="3" y="-16"/>
      <point x="45" y="25"/>
    </contour>
    <contour>
      <point x="555" y="-40" type="line"/>
      <point x="442" y="-40" type="line"/>
      <point x="443" y="492" type="line"/>
      <point x="555" y="492" type="line"/>
    </contour>
    <contour>
      <point x="254" y="105" type="qcurve" smooth="yes"/>
      <point x="306" y="105"/>
      <point x="425" y="156"/>
      <point x="442" y="178" type="qcurve"/>
      <point x="441" y="76" type="line"/>
      <point x="354" y="19"/>
      <point x="262" y="19" type="qcurve" smooth="yes"/>
      <point x="241" y="19"/>
      <point x="183" y="28"/>
      <point x="103" y="58"/>
      <point x="38" y="102"/>
      <point x="-8" y="182"/>
      <point x="-8" y="233" type="qcurve" smooth="yes"/>
      <point x="-8" y="239" type="line" smooth="yes"/>
      <point x="-8" y="257"/>
      <point x="24" y="282"/>
      <point x="49" y="282" type="qcurve" smooth="yes"/>
      <point x="145" y="282" type="line" smooth="yes"/>
      <point x="176" y="282"/>
      <point x="219" y="321"/>
      <point x="219" y="351" type="qcurve" smooth="yes"/>
      <point x="219" y="410"/>
      <point x="150" y="410" type="qcurve" smooth="yes"/>
      <point x="62" y="410" type="line"/>
      <point x="62" y="494" type="line"/>
      <point x="210" y="494" type="line" smooth="yes"/>
      <point x="267" y="494"/>
      <point x="338" y="409"/>
      <point x="338" y="347" type="qcurve" smooth="yes"/>
      <point x="337" y="219"/>
      <point x="213" y="217" type="qcurve" smooth="yes"/>
      <point x="199" y="217"/>
      <point x="161" y="222"/>
      <point x="151" y="222" type="qcurve" smooth="yes"/>
      <point x="125" y="222"/>
      <point x="122" y="198" type="qcurve"/>
      <point x="125" y="177" type="line"/>
      <point x="132" y="154"/>
      <point x="166" y="123"/>
      <point x="210" y="110"/>
      <point x="241" y="105"/>
    </contour>
  </outline>
</glyph>
<glyph name="uni918_930_94D.blwf.vatu" format="1">
  <advance width="575"/>
  <outline>
    <contour>
      <point x="234" y="322" type="line" smooth="yes"/>
      <point x="203" y="322"/>
      <point x="147" y="283"/>
      <point x="146" y="254" type="qcurve" smooth="yes"/>
      <point x="146" y="228"/>
      <point x="190" y="193"/>
      <point x="231" y="193" type="qcurve" smooth="yes"/>
      <point x="314" y="193"/>
      <point x="434" y="271" type="qcurve"/>
      <point x="434" y="541" type="line"/>
      <point x="158" y="541" type="line"/>
      <point x="156" y="538"/>
      <point x="136" y="521"/>
      <point x="114" y="484"/>
      <point x="114" y="467" type="qcurve" smooth="yes"/>
      <point x="114" y="440"/>
      <point x="188" y="395"/>
      <point x="216" y="395" type="qcurve" smooth="yes"/>
      <point x="291" y="395" type="line"/>
      <point x="332" y="322" type="line"/>
    </contour>
    <contour>
      <point x="129" y="355" type="qcurve"/>
      <point x="85" y="364"/>
      <point x="43" y="446"/>
      <point x="43" y="479" type="qcurve" smooth="yes"/>
      <point x="43" y="517"/>
      <point x="68" y="541" type="qcurve"/>
      <point x="0" y="541" type="line"/>
      <point x="0" y="613" type="line"/>
      <point x="575" y="613" type="line"/>
      <point x="575" y="541" type="line"/>
      <point x="505" y="541" type="line"/>
      <point x="505" y="6" type="line"/>
      <point x="434" y="6" type="line"/>
      <point x="434" y="105" type="line"/>
      <point x="189" y="-55" type="line"/>
      <point x="144" y="1" type="line"/>
      <point x="434" y="188" type="line"/>
      <point x="408" y="175"/>
      <point x="354" y="145"/>
      <point x="275" y="121"/>
      <point x="240" y="121" type="qcurve" smooth="yes"/>
      <point x="223" y="121"/>
      <point x="176" y="132"/>
      <point x="116" y="158"/>
      <point x="75" y="214"/>
      <point x="75" y="252" type="qcurve" smooth="yes"/>
      <point x="75" y="310"/>
    </contour>
  </outline>
</glyph>
